  0
SECTION
  2
HEADER
  9
$ACADVER
  1
AC1009
  9
$FILLMODE
 70
 0
  9
$SPLFRAME
 70
 1
  9
$EXTMIN
 10
0
 20
0
 30
0.0
  9
$EXTMAX
 10
1058.33
 20
1058.33
 30
0.0
  0
ENDSEC
  0
SECTION
  2
TABLES
  0
TABLE
  2
LAYER
 70
1
  0
LAYER
  2
0
 70
     0
 62
     7
  6
CONTINUOUS
  0
ENDTAB
  0
ENDSEC
  0
SECTION
  2
ENTITIES
  0
LINE
  8
0
 62
     0
 10
0.0950846
 20
109.266
 30
0.0
 11
318.086
 21
109.266
 31
0.0
  0
LINE
  8
0
 62
     0
 10
318.086
 20
109.266
 30
0.0
 11
318.086
 21
0.275608
 31
0.0
  0
LINE
  8
0
 62
     0
 10
318.086
 20
0.275608
 30
0.0
 11
0.0950846
 21
0.275608
 31
0.0
  0
LINE
  8
0
 62
     0
 10
0.0950846
 20
0.275608
 30
0.0
 11
0.0950846
 21
109.266
 31
0.0
  0
LINE
  8
0
 62
     0
 10
130.743
 20
23.9517
 30
0.0
 11
130.743
 21
19.2512
 31
0.0
  0
LINE
  8
0
 62
     0
 10
130.743
 20
19.2512
 30
0.0
 11
91.1172
 21
19.2512
 31
0.0
  0
LINE
  8
0
 62
     0
 10
91.1172
 20
19.2512
 30
0.0
 11
91.1172
 21
22.4813
 31
0.0
  0
LINE
  8
0
 62
     0
 10
91.1172
 20
22.4813
 30
0.0
 11
84.3675
 21
22.4813
 31
0.0
  0
LINE
  8
0
 62
     0
 10
84.3675
 20
22.4813
 30
0.0
 11
84.3675
 21
19.2512
 31
0.0
  0
LINE
  8
0
 62
     0
 10
84.3675
 20
19.2512
 30
0.0
 11
83.5424
 21
19.2512
 31
0.0
  0
LINE
  8
0
 62
     0
 10
83.5424
 20
19.2512
 30
0.0
 11
83.5424
 21
16.451
 31
0.0
  0
LINE
  8
0
 62
     0
 10
83.5424
 20
16.451
 30
0.0
 11
84.3675
 21
16.451
 31
0.0
  0
LINE
  8
0
 62
     0
 10
84.3675
 20
16.451
 30
0.0
 11
84.3675
 21
10.181
 31
0.0
  0
LINE
  8
0
 62
     0
 10
84.3675
 20
10.181
 30
0.0
 11
86.0929
 21
10.181
 31
0.0
  0
LINE
  8
0
 62
     0
 10
86.0929
 20
10.181
 30
0.0
 11
86.0929
 21
8.98204
 31
0.0
  0
LINE
  8
0
 62
     0
 10
86.0929
 20
8.98204
 30
0.0
 11
89.3921
 21
8.98204
 31
0.0
  0
LINE
  8
0
 62
     0
 10
89.3921
 20
8.98204
 30
0.0
 11
89.3921
 21
10.181
 31
0.0
  0
LINE
  8
0
 62
     0
 10
89.3921
 20
10.181
 30
0.0
 11
91.1172
 21
10.181
 31
0.0
  0
LINE
  8
0
 62
     0
 10
91.1172
 20
10.181
 30
0.0
 11
91.1172
 21
14.6513
 31
0.0
  0
LINE
  8
0
 62
     0
 10
91.1172
 20
14.6513
 30
0.0
 11
130.743
 21
14.6513
 31
0.0
  0
LINE
  8
0
 62
     0
 10
130.743
 20
14.6513
 30
0.0
 11
130.743
 21
9.95218
 31
0.0
  0
LINE
  8
0
 62
     0
 10
130.743
 20
9.95218
 30
0.0
 11
144.742
 21
9.95218
 31
0.0
  0
LINE
  8
0
 62
     0
 10
144.742
 20
9.95218
 30
0.0
 11
144.742
 21
14.6513
 31
0.0
  0
LINE
  8
0
 62
     0
 10
144.742
 20
14.6513
 30
0.0
 11
184.368
 21
14.6513
 31
0.0
  0
LINE
  8
0
 62
     0
 10
184.368
 20
14.6513
 30
0.0
 11
184.368
 21
10.181
 31
0.0
  0
LINE
  8
0
 62
     0
 10
184.368
 20
10.181
 30
0.0
 11
186.093
 21
10.181
 31
0.0
  0
LINE
  8
0
 62
     0
 10
186.093
 20
10.181
 30
0.0
 11
186.093
 21
8.98204
 31
0.0
  0
LINE
  8
0
 62
     0
 10
186.093
 20
8.98204
 30
0.0
 11
189.392
 21
8.98204
 31
0.0
  0
LINE
  8
0
 62
     0
 10
189.392
 20
8.98204
 30
0.0
 11
189.392
 21
10.181
 31
0.0
  0
LINE
  8
0
 62
     0
 10
189.392
 20
10.181
 30
0.0
 11
191.117
 21
10.181
 31
0.0
  0
LINE
  8
0
 62
     0
 10
191.117
 20
10.181
 30
0.0
 11
191.117
 21
16.451
 31
0.0
  0
LINE
  8
0
 62
     0
 10
191.117
 20
16.451
 30
0.0
 11
191.943
 21
16.451
 31
0.0
  0
LINE
  8
0
 62
     0
 10
191.943
 20
16.451
 30
0.0
 11
191.943
 21
19.2512
 31
0.0
  0
LINE
  8
0
 62
     0
 10
191.943
 20
19.2512
 30
0.0
 11
191.117
 21
19.2512
 31
0.0
  0
LINE
  8
0
 62
     0
 10
191.117
 20
19.2512
 30
0.0
 11
191.117
 21
22.4813
 31
0.0
  0
LINE
  8
0
 62
     0
 10
191.117
 20
22.4813
 30
0.0
 11
184.368
 21
22.4813
 31
0.0
  0
LINE
  8
0
 62
     0
 10
184.368
 20
22.4813
 30
0.0
 11
184.368
 21
19.2512
 31
0.0
  0
LINE
  8
0
 62
     0
 10
184.368
 20
19.2512
 30
0.0
 11
144.742
 21
19.2512
 31
0.0
  0
LINE
  8
0
 62
     0
 10
144.742
 20
19.2512
 30
0.0
 11
144.742
 21
23.9517
 31
0.0
  0
LINE
  8
0
 62
     0
 10
144.742
 20
23.9517
 30
0.0
 11
130.743
 21
23.9517
 31
0.0
  0
LINE
  8
0
 62
     0
 10
11.6803
 20
23.9517
 30
0.0
 11
25.6811
 21
23.9517
 31
0.0
  0
LINE
  8
0
 62
     0
 10
25.6811
 20
23.9517
 30
0.0
 11
25.6811
 21
9.95218
 31
0.0
  0
LINE
  8
0
 62
     0
 10
25.6811
 20
9.95218
 30
0.0
 11
11.6803
 21
9.95218
 31
0.0
  0
LINE
  8
0
 62
     0
 10
11.6803
 20
9.95218
 30
0.0
 11
11.6803
 21
23.9517
 31
0.0
  0
LINE
  8
0
 62
     0
 10
35.4926
 20
23.9517
 30
0.0
 11
49.4923
 21
23.9517
 31
0.0
  0
LINE
  8
0
 62
     0
 10
49.4923
 20
23.9517
 30
0.0
 11
49.4923
 21
9.95218
 31
0.0
  0
LINE
  8
0
 62
     0
 10
49.4923
 20
9.95218
 30
0.0
 11
35.4926
 21
9.95218
 31
0.0
  0
LINE
  8
0
 62
     0
 10
35.4926
 20
9.95218
 30
0.0
 11
35.4926
 21
23.9517
 31
0.0
  0
LINE
  8
0
 62
     0
 10
59.3051
 20
23.9517
 30
0.0
 11
73.3062
 21
23.9517
 31
0.0
  0
LINE
  8
0
 62
     0
 10
73.3062
 20
23.9517
 30
0.0
 11
73.3062
 21
9.95218
 31
0.0
  0
LINE
  8
0
 62
     0
 10
73.3062
 20
9.95218
 30
0.0
 11
59.3051
 21
9.95218
 31
0.0
  0
LINE
  8
0
 62
     0
 10
59.3051
 20
9.95218
 30
0.0
 11
59.3051
 21
23.9517
 31
0.0
  0
LINE
  8
0
 62
     0
 10
199.799
 20
23.9517
 30
0.0
 11
213.8
 21
23.9517
 31
0.0
  0
LINE
  8
0
 62
     0
 10
213.8
 20
23.9517
 30
0.0
 11
213.8
 21
9.95218
 31
0.0
  0
LINE
  8
0
 62
     0
 10
213.8
 20
9.95218
 30
0.0
 11
199.799
 21
9.95218
 31
0.0
  0
LINE
  8
0
 62
     0
 10
199.799
 20
9.95218
 30
0.0
 11
199.799
 21
23.9517
 31
0.0
  0
LINE
  8
0
 62
     0
 10
218.849
 20
23.9517
 30
0.0
 11
232.85
 21
23.9517
 31
0.0
  0
LINE
  8
0
 62
     0
 10
232.85
 20
23.9517
 30
0.0
 11
232.85
 21
9.95218
 31
0.0
  0
LINE
  8
0
 62
     0
 10
232.85
 20
9.95218
 30
0.0
 11
218.849
 21
9.95218
 31
0.0
  0
LINE
  8
0
 62
     0
 10
218.849
 20
9.95218
 30
0.0
 11
218.849
 21
23.9517
 31
0.0
  0
LINE
  8
0
 62
     0
 10
237.899
 20
23.9517
 30
0.0
 11
251.9
 21
23.9517
 31
0.0
  0
LINE
  8
0
 62
     0
 10
251.9
 20
23.9517
 30
0.0
 11
251.9
 21
9.95218
 31
0.0
  0
LINE
  8
0
 62
     0
 10
251.9
 20
9.95218
 30
0.0
 11
237.899
 21
9.95218
 31
0.0
  0
LINE
  8
0
 62
     0
 10
237.899
 20
9.95218
 30
0.0
 11
237.899
 21
23.9517
 31
0.0
  0
LINE
  8
0
 62
     0
 10
256.949
 20
23.9517
 30
0.0
 11
270.95
 21
23.9517
 31
0.0
  0
LINE
  8
0
 62
     0
 10
270.95
 20
23.9517
 30
0.0
 11
270.95
 21
9.95218
 31
0.0
  0
LINE
  8
0
 62
     0
 10
270.95
 20
9.95218
 30
0.0
 11
256.949
 21
9.95218
 31
0.0
  0
LINE
  8
0
 62
     0
 10
256.949
 20
9.95218
 30
0.0
 11
256.949
 21
23.9517
 31
0.0
  0
LINE
  8
0
 62
     0
 10
275.999
 20
23.9517
 30
0.0
 11
290
 21
23.9517
 31
0.0
  0
LINE
  8
0
 62
     0
 10
290
 20
23.9517
 30
0.0
 11
290
 21
9.95218
 31
0.0
  0
LINE
  8
0
 62
     0
 10
290
 20
9.95218
 30
0.0
 11
275.999
 21
9.95218
 31
0.0
  0
LINE
  8
0
 62
     0
 10
275.999
 20
9.95218
 30
0.0
 11
275.999
 21
23.9517
 31
0.0
  0
LINE
  8
0
 62
     0
 10
295.049
 20
23.9517
 30
0.0
 11
309.05
 21
23.9517
 31
0.0
  0
LINE
  8
0
 62
     0
 10
309.05
 20
23.9517
 30
0.0
 11
309.05
 21
9.95218
 31
0.0
  0
LINE
  8
0
 62
     0
 10
309.05
 20
9.95218
 30
0.0
 11
295.049
 21
9.95218
 31
0.0
  0
LINE
  8
0
 62
     0
 10
295.049
 20
9.95218
 30
0.0
 11
295.049
 21
23.9517
 31
0.0
  0
LINE
  8
0
 62
     0
 10
21.2053
 20
43.0018
 30
0.0
 11
21.2053
 21
38.3011
 31
0.0
  0
LINE
  8
0
 62
     0
 10
21.2053
 20
38.3011
 30
0.0
 11
19.6812
 21
38.3011
 31
0.0
  0
LINE
  8
0
 62
     0
 10
19.6812
 20
38.3011
 30
0.0
 11
19.6812
 21
41.5315
 31
0.0
  0
LINE
  8
0
 62
     0
 10
19.6812
 20
41.5315
 30
0.0
 11
12.9301
 21
41.5315
 31
0.0
  0
LINE
  8
0
 62
     0
 10
12.9301
 20
41.5315
 30
0.0
 11
12.9301
 21
38.3011
 31
0.0
  0
LINE
  8
0
 62
     0
 10
12.9301
 20
38.3011
 30
0.0
 11
12.1061
 21
38.3011
 31
0.0
  0
LINE
  8
0
 62
     0
 10
12.1061
 20
38.3011
 30
0.0
 11
12.1061
 21
35.5011
 31
0.0
  0
LINE
  8
0
 62
     0
 10
12.1061
 20
35.5011
 30
0.0
 11
12.9301
 21
35.5011
 31
0.0
  0
LINE
  8
0
 62
     0
 10
12.9301
 20
35.5011
 30
0.0
 11
12.9301
 21
29.231
 31
0.0
  0
LINE
  8
0
 62
     0
 10
12.9301
 20
29.231
 30
0.0
 11
14.6554
 21
29.231
 31
0.0
  0
LINE
  8
0
 62
     0
 10
14.6554
 20
29.231
 30
0.0
 11
14.6554
 21
28.032
 31
0.0
  0
LINE
  8
0
 62
     0
 10
14.6554
 20
28.032
 30
0.0
 11
17.9558
 21
28.032
 31
0.0
  0
LINE
  8
0
 62
     0
 10
17.9558
 20
28.032
 30
0.0
 11
17.9558
 21
29.231
 31
0.0
  0
LINE
  8
0
 62
     0
 10
17.9558
 20
29.231
 30
0.0
 11
19.6812
 21
29.231
 31
0.0
  0
LINE
  8
0
 62
     0
 10
19.6812
 20
29.231
 30
0.0
 11
19.6812
 21
33.7013
 31
0.0
  0
LINE
  8
0
 62
     0
 10
19.6812
 20
33.7013
 30
0.0
 11
21.2053
 21
33.7013
 31
0.0
  0
LINE
  8
0
 62
     0
 10
21.2053
 20
33.7013
 30
0.0
 11
21.2053
 21
29.0022
 31
0.0
  0
LINE
  8
0
 62
     0
 10
21.2053
 20
29.0022
 30
0.0
 11
35.2061
 21
29.0022
 31
0.0
  0
LINE
  8
0
 62
     0
 10
35.2061
 20
29.0022
 30
0.0
 11
35.2061
 21
33.7013
 31
0.0
  0
LINE
  8
0
 62
     0
 10
35.2061
 20
33.7013
 30
0.0
 11
36.7302
 21
33.7013
 31
0.0
  0
LINE
  8
0
 62
     0
 10
36.7302
 20
33.7013
 30
0.0
 11
36.7302
 21
29.231
 31
0.0
  0
LINE
  8
0
 62
     0
 10
36.7302
 20
29.231
 30
0.0
 11
38.4556
 21
29.231
 31
0.0
  0
LINE
  8
0
 62
     0
 10
38.4556
 20
29.231
 30
0.0
 11
38.4556
 21
28.032
 31
0.0
  0
LINE
  8
0
 62
     0
 10
38.4556
 20
28.032
 30
0.0
 11
41.7558
 21
28.032
 31
0.0
  0
LINE
  8
0
 62
     0
 10
41.7558
 20
28.032
 30
0.0
 11
41.7558
 21
29.231
 31
0.0
  0
LINE
  8
0
 62
     0
 10
41.7558
 20
29.231
 30
0.0
 11
43.4799
 21
29.231
 31
0.0
  0
LINE
  8
0
 62
     0
 10
43.4799
 20
29.231
 30
0.0
 11
43.4799
 21
35.5011
 31
0.0
  0
LINE
  8
0
 62
     0
 10
43.4799
 20
35.5011
 30
0.0
 11
44.3054
 21
35.5011
 31
0.0
  0
LINE
  8
0
 62
     0
 10
44.3054
 20
35.5011
 30
0.0
 11
44.3054
 21
38.3011
 31
0.0
  0
LINE
  8
0
 62
     0
 10
44.3054
 20
38.3011
 30
0.0
 11
43.4799
 21
38.3011
 31
0.0
  0
LINE
  8
0
 62
     0
 10
43.4799
 20
38.3011
 30
0.0
 11
43.4799
 21
41.5315
 31
0.0
  0
LINE
  8
0
 62
     0
 10
43.4799
 20
41.5315
 30
0.0
 11
36.7302
 21
41.5315
 31
0.0
  0
LINE
  8
0
 62
     0
 10
36.7302
 20
41.5315
 30
0.0
 11
36.7302
 21
38.3011
 31
0.0
  0
LINE
  8
0
 62
     0
 10
36.7302
 20
38.3011
 30
0.0
 11
35.2061
 21
38.3011
 31
0.0
  0
LINE
  8
0
 62
     0
 10
35.2061
 20
38.3011
 30
0.0
 11
35.2061
 21
43.0018
 31
0.0
  0
LINE
  8
0
 62
     0
 10
35.2061
 20
43.0018
 30
0.0
 11
21.2053
 21
43.0018
 31
0.0
  0
LINE
  8
0
 62
     0
 10
52.1614
 20
43.0018
 30
0.0
 11
66.161
 21
43.0018
 31
0.0
  0
LINE
  8
0
 62
     0
 10
66.161
 20
43.0018
 30
0.0
 11
66.161
 21
29.0022
 31
0.0
  0
LINE
  8
0
 62
     0
 10
66.161
 20
29.0022
 30
0.0
 11
52.1614
 21
29.0022
 31
0.0
  0
LINE
  8
0
 62
     0
 10
52.1614
 20
29.0022
 30
0.0
 11
52.1614
 21
43.0018
 31
0.0
  0
LINE
  8
0
 62
     0
 10
71.2114
 20
43.0018
 30
0.0
 11
85.211
 21
43.0018
 31
0.0
  0
LINE
  8
0
 62
     0
 10
85.211
 20
43.0018
 30
0.0
 11
85.211
 21
29.0022
 31
0.0
  0
LINE
  8
0
 62
     0
 10
85.211
 20
29.0022
 30
0.0
 11
71.2114
 21
29.0022
 31
0.0
  0
LINE
  8
0
 62
     0
 10
71.2114
 20
29.0022
 30
0.0
 11
71.2114
 21
43.0018
 31
0.0
  0
LINE
  8
0
 62
     0
 10
90.2614
 20
43.0018
 30
0.0
 11
104.261
 21
43.0018
 31
0.0
  0
LINE
  8
0
 62
     0
 10
104.261
 20
43.0018
 30
0.0
 11
104.261
 21
29.0022
 31
0.0
  0
LINE
  8
0
 62
     0
 10
104.261
 20
29.0022
 30
0.0
 11
90.2614
 21
29.0022
 31
0.0
  0
LINE
  8
0
 62
     0
 10
90.2614
 20
29.0022
 30
0.0
 11
90.2614
 21
43.0018
 31
0.0
  0
LINE
  8
0
 62
     0
 10
109.311
 20
43.0018
 30
0.0
 11
123.311
 21
43.0018
 31
0.0
  0
LINE
  8
0
 62
     0
 10
123.311
 20
43.0018
 30
0.0
 11
123.311
 21
29.0022
 31
0.0
  0
LINE
  8
0
 62
     0
 10
123.311
 20
29.0022
 30
0.0
 11
109.311
 21
29.0022
 31
0.0
  0
LINE
  8
0
 62
     0
 10
109.311
 20
29.0022
 30
0.0
 11
109.311
 21
43.0018
 31
0.0
  0
LINE
  8
0
 62
     0
 10
128.361
 20
43.0018
 30
0.0
 11
142.361
 21
43.0018
 31
0.0
  0
LINE
  8
0
 62
     0
 10
142.361
 20
43.0018
 30
0.0
 11
142.361
 21
29.0022
 31
0.0
  0
LINE
  8
0
 62
     0
 10
142.361
 20
29.0022
 30
0.0
 11
128.361
 21
29.0022
 31
0.0
  0
LINE
  8
0
 62
     0
 10
128.361
 20
29.0022
 30
0.0
 11
128.361
 21
43.0018
 31
0.0
  0
LINE
  8
0
 62
     0
 10
147.411
 20
43.0018
 30
0.0
 11
161.411
 21
43.0018
 31
0.0
  0
LINE
  8
0
 62
     0
 10
161.411
 20
43.0018
 30
0.0
 11
161.411
 21
29.0022
 31
0.0
  0
LINE
  8
0
 62
     0
 10
161.411
 20
29.0022
 30
0.0
 11
147.411
 21
29.0022
 31
0.0
  0
LINE
  8
0
 62
     0
 10
147.411
 20
29.0022
 30
0.0
 11
147.411
 21
43.0018
 31
0.0
  0
LINE
  8
0
 62
     0
 10
166.461
 20
43.0018
 30
0.0
 11
180.461
 21
43.0018
 31
0.0
  0
LINE
  8
0
 62
     0
 10
180.461
 20
43.0018
 30
0.0
 11
180.461
 21
29.0022
 31
0.0
  0
LINE
  8
0
 62
     0
 10
180.461
 20
29.0022
 30
0.0
 11
166.461
 21
29.0022
 31
0.0
  0
LINE
  8
0
 62
     0
 10
166.461
 20
29.0022
 30
0.0
 11
166.461
 21
43.0018
 31
0.0
  0
LINE
  8
0
 62
     0
 10
185.511
 20
43.0018
 30
0.0
 11
199.511
 21
43.0018
 31
0.0
  0
LINE
  8
0
 62
     0
 10
199.511
 20
43.0018
 30
0.0
 11
199.511
 21
29.0022
 31
0.0
  0
LINE
  8
0
 62
     0
 10
199.511
 20
29.0022
 30
0.0
 11
185.511
 21
29.0022
 31
0.0
  0
LINE
  8
0
 62
     0
 10
185.511
 20
29.0022
 30
0.0
 11
185.511
 21
43.0018
 31
0.0
  0
LINE
  8
0
 62
     0
 10
204.561
 20
43.0018
 30
0.0
 11
218.561
 21
43.0018
 31
0.0
  0
LINE
  8
0
 62
     0
 10
218.561
 20
43.0018
 30
0.0
 11
218.561
 21
29.0022
 31
0.0
  0
LINE
  8
0
 62
     0
 10
218.561
 20
29.0022
 30
0.0
 11
204.561
 21
29.0022
 31
0.0
  0
LINE
  8
0
 62
     0
 10
204.561
 20
29.0022
 30
0.0
 11
204.561
 21
43.0018
 31
0.0
  0
LINE
  8
0
 62
     0
 10
223.611
 20
43.0018
 30
0.0
 11
237.611
 21
43.0018
 31
0.0
  0
LINE
  8
0
 62
     0
 10
237.611
 20
43.0018
 30
0.0
 11
237.611
 21
29.0022
 31
0.0
  0
LINE
  8
0
 62
     0
 10
237.611
 20
29.0022
 30
0.0
 11
223.611
 21
29.0022
 31
0.0
  0
LINE
  8
0
 62
     0
 10
223.611
 20
29.0022
 30
0.0
 11
223.611
 21
43.0018
 31
0.0
  0
LINE
  8
0
 62
     0
 10
249.805
 20
43.0018
 30
0.0
 11
263.806
 21
43.0018
 31
0.0
  0
LINE
  8
0
 62
     0
 10
263.806
 20
43.0018
 30
0.0
 11
263.806
 21
29.0022
 31
0.0
  0
LINE
  8
0
 62
     0
 10
263.806
 20
29.0022
 30
0.0
 11
249.805
 21
29.0022
 31
0.0
  0
LINE
  8
0
 62
     0
 10
249.805
 20
29.0022
 30
0.0
 11
249.805
 21
43.0018
 31
0.0
  0
LINE
  8
0
 62
     0
 10
275.999
 20
43.0018
 30
0.0
 11
290
 21
43.0018
 31
0.0
  0
LINE
  8
0
 62
     0
 10
290
 20
43.0018
 30
0.0
 11
290
 21
29.0022
 31
0.0
  0
LINE
  8
0
 62
     0
 10
290
 20
29.0022
 30
0.0
 11
275.999
 21
29.0022
 31
0.0
  0
LINE
  8
0
 62
     0
 10
275.999
 20
29.0022
 30
0.0
 11
275.999
 21
43.0018
 31
0.0
  0
LINE
  8
0
 62
     0
 10
295.049
 20
43.0018
 30
0.0
 11
309.05
 21
43.0018
 31
0.0
  0
LINE
  8
0
 62
     0
 10
309.05
 20
43.0018
 30
0.0
 11
309.05
 21
29.0022
 31
0.0
  0
LINE
  8
0
 62
     0
 10
309.05
 20
29.0022
 30
0.0
 11
295.049
 21
29.0022
 31
0.0
  0
LINE
  8
0
 62
     0
 10
295.049
 20
29.0022
 30
0.0
 11
295.049
 21
43.0018
 31
0.0
  0
LINE
  8
0
 62
     0
 10
264.093
 20
62.0518
 30
0.0
 11
264.093
 21
57.3511
 31
0.0
  0
LINE
  8
0
 62
     0
 10
264.093
 20
57.3511
 30
0.0
 11
262.567
 21
57.3511
 31
0.0
  0
LINE
  8
0
 62
     0
 10
262.567
 20
57.3511
 30
0.0
 11
262.567
 21
60.5815
 31
0.0
  0
LINE
  8
0
 62
     0
 10
262.567
 20
60.5815
 30
0.0
 11
255.818
 21
60.5815
 31
0.0
  0
LINE
  8
0
 62
     0
 10
255.818
 20
60.5815
 30
0.0
 11
255.818
 21
57.3511
 31
0.0
  0
LINE
  8
0
 62
     0
 10
255.818
 20
57.3511
 30
0.0
 11
254.992
 21
57.3511
 31
0.0
  0
LINE
  8
0
 62
     0
 10
254.992
 20
57.3511
 30
0.0
 11
254.992
 21
54.5511
 31
0.0
  0
LINE
  8
0
 62
     0
 10
254.992
 20
54.5511
 30
0.0
 11
255.818
 21
54.5511
 31
0.0
  0
LINE
  8
0
 62
     0
 10
255.818
 20
54.5511
 30
0.0
 11
255.818
 21
48.2808
 31
0.0
  0
LINE
  8
0
 62
     0
 10
255.818
 20
48.2808
 30
0.0
 11
257.543
 21
48.2808
 31
0.0
  0
LINE
  8
0
 62
     0
 10
257.543
 20
48.2808
 30
0.0
 11
257.543
 21
47.0821
 31
0.0
  0
LINE
  8
0
 62
     0
 10
257.543
 20
47.0821
 30
0.0
 11
260.842
 21
47.0821
 31
0.0
  0
LINE
  8
0
 62
     0
 10
260.842
 20
47.0821
 30
0.0
 11
260.842
 21
48.2808
 31
0.0
  0
LINE
  8
0
 62
     0
 10
260.842
 20
48.2808
 30
0.0
 11
262.567
 21
48.2808
 31
0.0
  0
LINE
  8
0
 62
     0
 10
262.567
 20
48.2808
 30
0.0
 11
262.567
 21
52.7512
 31
0.0
  0
LINE
  8
0
 62
     0
 10
262.567
 20
52.7512
 30
0.0
 11
264.093
 21
52.7512
 31
0.0
  0
LINE
  8
0
 62
     0
 10
264.093
 20
52.7512
 30
0.0
 11
264.093
 21
48.0522
 31
0.0
  0
LINE
  8
0
 62
     0
 10
264.093
 20
48.0522
 30
0.0
 11
278.092
 21
48.0522
 31
0.0
  0
LINE
  8
0
 62
     0
 10
278.092
 20
48.0522
 30
0.0
 11
278.092
 21
52.7512
 31
0.0
  0
LINE
  8
0
 62
     0
 10
278.092
 20
52.7512
 30
0.0
 11
279.618
 21
52.7512
 31
0.0
  0
LINE
  8
0
 62
     0
 10
279.618
 20
52.7512
 30
0.0
 11
279.618
 21
48.2808
 31
0.0
  0
LINE
  8
0
 62
     0
 10
279.618
 20
48.2808
 30
0.0
 11
281.343
 21
48.2808
 31
0.0
  0
LINE
  8
0
 62
     0
 10
281.343
 20
48.2808
 30
0.0
 11
281.343
 21
47.0821
 31
0.0
  0
LINE
  8
0
 62
     0
 10
281.343
 20
47.0821
 30
0.0
 11
284.642
 21
47.0821
 31
0.0
  0
LINE
  8
0
 62
     0
 10
284.642
 20
47.0821
 30
0.0
 11
284.642
 21
48.2808
 31
0.0
  0
LINE
  8
0
 62
     0
 10
284.642
 20
48.2808
 30
0.0
 11
286.367
 21
48.2808
 31
0.0
  0
LINE
  8
0
 62
     0
 10
286.367
 20
48.2808
 30
0.0
 11
286.367
 21
54.5511
 31
0.0
  0
LINE
  8
0
 62
     0
 10
286.367
 20
54.5511
 30
0.0
 11
287.193
 21
54.5511
 31
0.0
  0
LINE
  8
0
 62
     0
 10
287.193
 20
54.5511
 30
0.0
 11
287.193
 21
57.3511
 31
0.0
  0
LINE
  8
0
 62
     0
 10
287.193
 20
57.3511
 30
0.0
 11
286.367
 21
57.3511
 31
0.0
  0
LINE
  8
0
 62
     0
 10
286.367
 20
57.3511
 30
0.0
 11
286.367
 21
60.5815
 31
0.0
  0
LINE
  8
0
 62
     0
 10
286.367
 20
60.5815
 30
0.0
 11
279.618
 21
60.5815
 31
0.0
  0
LINE
  8
0
 62
     0
 10
279.618
 20
60.5815
 30
0.0
 11
279.618
 21
57.3511
 31
0.0
  0
LINE
  8
0
 62
     0
 10
279.618
 20
57.3511
 30
0.0
 11
278.092
 21
57.3511
 31
0.0
  0
LINE
  8
0
 62
     0
 10
278.092
 20
57.3511
 30
0.0
 11
278.092
 21
62.0518
 31
0.0
  0
LINE
  8
0
 62
     0
 10
278.092
 20
62.0518
 30
0.0
 11
264.093
 21
62.0518
 31
0.0
  0
LINE
  8
0
 62
     0
 10
16.4428
 20
62.0518
 30
0.0
 11
30.4423
 21
62.0518
 31
0.0
  0
LINE
  8
0
 62
     0
 10
30.4423
 20
62.0518
 30
0.0
 11
30.4423
 21
48.0522
 31
0.0
  0
LINE
  8
0
 62
     0
 10
30.4423
 20
48.0522
 30
0.0
 11
16.4428
 21
48.0522
 31
0.0
  0
LINE
  8
0
 62
     0
 10
16.4428
 20
48.0522
 30
0.0
 11
16.4428
 21
62.0518
 31
0.0
  0
LINE
  8
0
 62
     0
 10
42.6364
 20
62.0518
 30
0.0
 11
56.636
 21
62.0518
 31
0.0
  0
LINE
  8
0
 62
     0
 10
56.636
 20
62.0518
 30
0.0
 11
56.636
 21
48.0522
 31
0.0
  0
LINE
  8
0
 62
     0
 10
56.636
 20
48.0522
 30
0.0
 11
42.6364
 21
48.0522
 31
0.0
  0
LINE
  8
0
 62
     0
 10
42.6364
 20
48.0522
 30
0.0
 11
42.6364
 21
62.0518
 31
0.0
  0
LINE
  8
0
 62
     0
 10
61.6864
 20
62.0518
 30
0.0
 11
75.686
 21
62.0518
 31
0.0
  0
LINE
  8
0
 62
     0
 10
75.686
 20
62.0518
 30
0.0
 11
75.686
 21
48.0522
 31
0.0
  0
LINE
  8
0
 62
     0
 10
75.686
 20
48.0522
 30
0.0
 11
61.6864
 21
48.0522
 31
0.0
  0
LINE
  8
0
 62
     0
 10
61.6864
 20
48.0522
 30
0.0
 11
61.6864
 21
62.0518
 31
0.0
  0
LINE
  8
0
 62
     0
 10
80.7364
 20
62.0518
 30
0.0
 11
94.736
 21
62.0518
 31
0.0
  0
LINE
  8
0
 62
     0
 10
94.736
 20
62.0518
 30
0.0
 11
94.736
 21
48.0522
 31
0.0
  0
LINE
  8
0
 62
     0
 10
94.736
 20
48.0522
 30
0.0
 11
80.7364
 21
48.0522
 31
0.0
  0
LINE
  8
0
 62
     0
 10
80.7364
 20
48.0522
 30
0.0
 11
80.7364
 21
62.0518
 31
0.0
  0
LINE
  8
0
 62
     0
 10
99.7864
 20
62.0518
 30
0.0
 11
113.786
 21
62.0518
 31
0.0
  0
LINE
  8
0
 62
     0
 10
113.786
 20
62.0518
 30
0.0
 11
113.786
 21
48.0522
 31
0.0
  0
LINE
  8
0
 62
     0
 10
113.786
 20
48.0522
 30
0.0
 11
99.7864
 21
48.0522
 31
0.0
  0
LINE
  8
0
 62
     0
 10
99.7864
 20
48.0522
 30
0.0
 11
99.7864
 21
62.0518
 31
0.0
  0
LINE
  8
0
 62
     0
 10
118.836
 20
62.0518
 30
0.0
 11
132.836
 21
62.0518
 31
0.0
  0
LINE
  8
0
 62
     0
 10
132.836
 20
62.0518
 30
0.0
 11
132.836
 21
48.0522
 31
0.0
  0
LINE
  8
0
 62
     0
 10
132.836
 20
48.0522
 30
0.0
 11
118.836
 21
48.0522
 31
0.0
  0
LINE
  8
0
 62
     0
 10
118.836
 20
48.0522
 30
0.0
 11
118.836
 21
62.0518
 31
0.0
  0
LINE
  8
0
 62
     0
 10
137.886
 20
62.0518
 30
0.0
 11
151.886
 21
62.0518
 31
0.0
  0
LINE
  8
0
 62
     0
 10
151.886
 20
62.0518
 30
0.0
 11
151.886
 21
48.0522
 31
0.0
  0
LINE
  8
0
 62
     0
 10
151.886
 20
48.0522
 30
0.0
 11
137.886
 21
48.0522
 31
0.0
  0
LINE
  8
0
 62
     0
 10
137.886
 20
48.0522
 30
0.0
 11
137.886
 21
62.0518
 31
0.0
  0
LINE
  8
0
 62
     0
 10
156.936
 20
62.0518
 30
0.0
 11
170.936
 21
62.0518
 31
0.0
  0
LINE
  8
0
 62
     0
 10
170.936
 20
62.0518
 30
0.0
 11
170.936
 21
48.0522
 31
0.0
  0
LINE
  8
0
 62
     0
 10
170.936
 20
48.0522
 30
0.0
 11
156.936
 21
48.0522
 31
0.0
  0
LINE
  8
0
 62
     0
 10
156.936
 20
48.0522
 30
0.0
 11
156.936
 21
62.0518
 31
0.0
  0
LINE
  8
0
 62
     0
 10
175.986
 20
62.0518
 30
0.0
 11
189.986
 21
62.0518
 31
0.0
  0
LINE
  8
0
 62
     0
 10
189.986
 20
62.0518
 30
0.0
 11
189.986
 21
48.0522
 31
0.0
  0
LINE
  8
0
 62
     0
 10
189.986
 20
48.0522
 30
0.0
 11
175.986
 21
48.0522
 31
0.0
  0
LINE
  8
0
 62
     0
 10
175.986
 20
48.0522
 30
0.0
 11
175.986
 21
62.0518
 31
0.0
  0
LINE
  8
0
 62
     0
 10
195.036
 20
62.0518
 30
0.0
 11
209.036
 21
62.0518
 31
0.0
  0
LINE
  8
0
 62
     0
 10
209.036
 20
62.0518
 30
0.0
 11
209.036
 21
48.0522
 31
0.0
  0
LINE
  8
0
 62
     0
 10
209.036
 20
48.0522
 30
0.0
 11
195.036
 21
48.0522
 31
0.0
  0
LINE
  8
0
 62
     0
 10
195.036
 20
48.0522
 30
0.0
 11
195.036
 21
62.0518
 31
0.0
  0
LINE
  8
0
 62
     0
 10
214.086
 20
62.0518
 30
0.0
 11
228.086
 21
62.0518
 31
0.0
  0
LINE
  8
0
 62
     0
 10
228.086
 20
62.0518
 30
0.0
 11
228.086
 21
48.0522
 31
0.0
  0
LINE
  8
0
 62
     0
 10
228.086
 20
48.0522
 30
0.0
 11
214.086
 21
48.0522
 31
0.0
  0
LINE
  8
0
 62
     0
 10
214.086
 20
48.0522
 30
0.0
 11
214.086
 21
62.0518
 31
0.0
  0
LINE
  8
0
 62
     0
 10
233.136
 20
62.0518
 30
0.0
 11
247.136
 21
62.0518
 31
0.0
  0
LINE
  8
0
 62
     0
 10
247.136
 20
62.0518
 30
0.0
 11
247.136
 21
48.0522
 31
0.0
  0
LINE
  8
0
 62
     0
 10
247.136
 20
48.0522
 30
0.0
 11
233.136
 21
48.0522
 31
0.0
  0
LINE
  8
0
 62
     0
 10
233.136
 20
48.0522
 30
0.0
 11
233.136
 21
62.0518
 31
0.0
  0
LINE
  8
0
 62
     0
 10
295.049
 20
62.0518
 30
0.0
 11
309.05
 21
62.0518
 31
0.0
  0
LINE
  8
0
 62
     0
 10
309.05
 20
62.0518
 30
0.0
 11
309.05
 21
48.0522
 31
0.0
  0
LINE
  8
0
 62
     0
 10
309.05
 20
48.0522
 30
0.0
 11
295.049
 21
48.0522
 31
0.0
  0
LINE
  8
0
 62
     0
 10
295.049
 20
48.0522
 30
0.0
 11
295.049
 21
62.0518
 31
0.0
  0
LINE
  8
0
 62
     0
 10
14.0615
 20
81.1018
 30
0.0
 11
28.061
 21
81.1018
 31
0.0
  0
LINE
  8
0
 62
     0
 10
28.061
 20
81.1018
 30
0.0
 11
28.061
 21
67.1022
 31
0.0
  0
LINE
  8
0
 62
     0
 10
28.061
 20
67.1022
 30
0.0
 11
14.0615
 21
67.1022
 31
0.0
  0
LINE
  8
0
 62
     0
 10
14.0615
 20
67.1022
 30
0.0
 11
14.0615
 21
81.1018
 31
0.0
  0
LINE
  8
0
 62
     0
 10
37.8739
 20
81.1018
 30
0.0
 11
51.8749
 21
81.1018
 31
0.0
  0
LINE
  8
0
 62
     0
 10
51.8749
 20
81.1018
 30
0.0
 11
51.8749
 21
67.1022
 31
0.0
  0
LINE
  8
0
 62
     0
 10
51.8749
 20
67.1022
 30
0.0
 11
37.8739
 21
67.1022
 31
0.0
  0
LINE
  8
0
 62
     0
 10
37.8739
 20
67.1022
 30
0.0
 11
37.8739
 21
81.1018
 31
0.0
  0
LINE
  8
0
 62
     0
 10
56.9239
 20
81.1018
 30
0.0
 11
70.9249
 21
81.1018
 31
0.0
  0
LINE
  8
0
 62
     0
 10
70.9249
 20
81.1018
 30
0.0
 11
70.9249
 21
67.1022
 31
0.0
  0
LINE
  8
0
 62
     0
 10
70.9249
 20
67.1022
 30
0.0
 11
56.9239
 21
67.1022
 31
0.0
  0
LINE
  8
0
 62
     0
 10
56.9239
 20
67.1022
 30
0.0
 11
56.9239
 21
81.1018
 31
0.0
  0
LINE
  8
0
 62
     0
 10
75.9739
 20
81.1018
 30
0.0
 11
89.9749
 21
81.1018
 31
0.0
  0
LINE
  8
0
 62
     0
 10
89.9749
 20
81.1018
 30
0.0
 11
89.9749
 21
67.1022
 31
0.0
  0
LINE
  8
0
 62
     0
 10
89.9749
 20
67.1022
 30
0.0
 11
75.9739
 21
67.1022
 31
0.0
  0
LINE
  8
0
 62
     0
 10
75.9739
 20
67.1022
 30
0.0
 11
75.9739
 21
81.1018
 31
0.0
  0
LINE
  8
0
 62
     0
 10
95.0239
 20
81.1018
 30
0.0
 11
109.024
 21
81.1018
 31
0.0
  0
LINE
  8
0
 62
     0
 10
109.024
 20
81.1018
 30
0.0
 11
109.024
 21
67.1022
 31
0.0
  0
LINE
  8
0
 62
     0
 10
109.024
 20
67.1022
 30
0.0
 11
95.0239
 21
67.1022
 31
0.0
  0
LINE
  8
0
 62
     0
 10
95.0239
 20
67.1022
 30
0.0
 11
95.0239
 21
81.1018
 31
0.0
  0
LINE
  8
0
 62
     0
 10
114.074
 20
81.1018
 30
0.0
 11
128.075
 21
81.1018
 31
0.0
  0
LINE
  8
0
 62
     0
 10
128.075
 20
81.1018
 30
0.0
 11
128.075
 21
67.1022
 31
0.0
  0
LINE
  8
0
 62
     0
 10
128.075
 20
67.1022
 30
0.0
 11
114.074
 21
67.1022
 31
0.0
  0
LINE
  8
0
 62
     0
 10
114.074
 20
67.1022
 30
0.0
 11
114.074
 21
81.1018
 31
0.0
  0
LINE
  8
0
 62
     0
 10
133.124
 20
81.1018
 30
0.0
 11
147.125
 21
81.1018
 31
0.0
  0
LINE
  8
0
 62
     0
 10
147.125
 20
81.1018
 30
0.0
 11
147.125
 21
67.1022
 31
0.0
  0
LINE
  8
0
 62
     0
 10
147.125
 20
67.1022
 30
0.0
 11
133.124
 21
67.1022
 31
0.0
  0
LINE
  8
0
 62
     0
 10
133.124
 20
67.1022
 30
0.0
 11
133.124
 21
81.1018
 31
0.0
  0
LINE
  8
0
 62
     0
 10
152.174
 20
81.1018
 30
0.0
 11
166.175
 21
81.1018
 31
0.0
  0
LINE
  8
0
 62
     0
 10
166.175
 20
81.1018
 30
0.0
 11
166.175
 21
67.1022
 31
0.0
  0
LINE
  8
0
 62
     0
 10
166.175
 20
67.1022
 30
0.0
 11
152.174
 21
67.1022
 31
0.0
  0
LINE
  8
0
 62
     0
 10
152.174
 20
67.1022
 30
0.0
 11
152.174
 21
81.1018
 31
0.0
  0
LINE
  8
0
 62
     0
 10
171.224
 20
81.1018
 30
0.0
 11
185.225
 21
81.1018
 31
0.0
  0
LINE
  8
0
 62
     0
 10
185.225
 20
81.1018
 30
0.0
 11
185.225
 21
67.1022
 31
0.0
  0
LINE
  8
0
 62
     0
 10
185.225
 20
67.1022
 30
0.0
 11
171.224
 21
67.1022
 31
0.0
  0
LINE
  8
0
 62
     0
 10
171.224
 20
67.1022
 30
0.0
 11
171.224
 21
81.1018
 31
0.0
  0
LINE
  8
0
 62
     0
 10
190.274
 20
81.1018
 30
0.0
 11
204.275
 21
81.1018
 31
0.0
  0
LINE
  8
0
 62
     0
 10
204.275
 20
81.1018
 30
0.0
 11
204.275
 21
67.1022
 31
0.0
  0
LINE
  8
0
 62
     0
 10
204.275
 20
67.1022
 30
0.0
 11
190.274
 21
67.1022
 31
0.0
  0
LINE
  8
0
 62
     0
 10
190.274
 20
67.1022
 30
0.0
 11
190.274
 21
81.1018
 31
0.0
  0
LINE
  8
0
 62
     0
 10
209.324
 20
81.1018
 30
0.0
 11
223.325
 21
81.1018
 31
0.0
  0
LINE
  8
0
 62
     0
 10
223.325
 20
81.1018
 30
0.0
 11
223.325
 21
67.1022
 31
0.0
  0
LINE
  8
0
 62
     0
 10
223.325
 20
67.1022
 30
0.0
 11
209.324
 21
67.1022
 31
0.0
  0
LINE
  8
0
 62
     0
 10
209.324
 20
67.1022
 30
0.0
 11
209.324
 21
81.1018
 31
0.0
  0
LINE
  8
0
 62
     0
 10
228.374
 20
81.1018
 30
0.0
 11
242.375
 21
81.1018
 31
0.0
  0
LINE
  8
0
 62
     0
 10
242.375
 20
81.1018
 30
0.0
 11
242.375
 21
67.1022
 31
0.0
  0
LINE
  8
0
 62
     0
 10
242.375
 20
67.1022
 30
0.0
 11
228.374
 21
67.1022
 31
0.0
  0
LINE
  8
0
 62
     0
 10
228.374
 20
67.1022
 30
0.0
 11
228.374
 21
81.1018
 31
0.0
  0
LINE
  8
0
 62
     0
 10
247.424
 20
81.1018
 30
0.0
 11
261.425
 21
81.1018
 31
0.0
  0
LINE
  8
0
 62
     0
 10
261.425
 20
81.1018
 30
0.0
 11
261.425
 21
67.1022
 31
0.0
  0
LINE
  8
0
 62
     0
 10
261.425
 20
67.1022
 30
0.0
 11
247.424
 21
67.1022
 31
0.0
  0
LINE
  8
0
 62
     0
 10
247.424
 20
67.1022
 30
0.0
 11
247.424
 21
81.1018
 31
0.0
  0
LINE
  8
0
 62
     0
 10
271.236
 20
81.1018
 30
0.0
 11
285.236
 21
81.1018
 31
0.0
  0
LINE
  8
0
 62
     0
 10
285.236
 20
81.1018
 30
0.0
 11
285.236
 21
67.1022
 31
0.0
  0
LINE
  8
0
 62
     0
 10
285.236
 20
67.1022
 30
0.0
 11
271.236
 21
67.1022
 31
0.0
  0
LINE
  8
0
 62
     0
 10
271.236
 20
67.1022
 30
0.0
 11
271.236
 21
81.1018
 31
0.0
  0
LINE
  8
0
 62
     0
 10
295.049
 20
81.1018
 30
0.0
 11
309.05
 21
81.1018
 31
0.0
  0
LINE
  8
0
 62
     0
 10
309.05
 20
81.1018
 30
0.0
 11
309.05
 21
67.1022
 31
0.0
  0
LINE
  8
0
 62
     0
 10
309.05
 20
67.1022
 30
0.0
 11
295.049
 21
67.1022
 31
0.0
  0
LINE
  8
0
 62
     0
 10
295.049
 20
67.1022
 30
0.0
 11
295.049
 21
81.1018
 31
0.0
  0
LINE
  8
0
 62
     0
 10
266.474
 20
100.152
 30
0.0
 11
266.474
 21
95.4511
 31
0.0
  0
LINE
  8
0
 62
     0
 10
266.474
 20
95.4511
 30
0.0
 11
264.95
 21
95.4511
 31
0.0
  0
LINE
  8
0
 62
     0
 10
264.95
 20
95.4511
 30
0.0
 11
264.95
 21
98.6815
 31
0.0
  0
LINE
  8
0
 62
     0
 10
264.95
 20
98.6815
 30
0.0
 11
258.199
 21
98.6815
 31
0.0
  0
LINE
  8
0
 62
     0
 10
258.199
 20
98.6815
 30
0.0
 11
258.199
 21
95.4511
 31
0.0
  0
LINE
  8
0
 62
     0
 10
258.199
 20
95.4511
 30
0.0
 11
257.375
 21
95.4511
 31
0.0
  0
LINE
  8
0
 62
     0
 10
257.375
 20
95.4511
 30
0.0
 11
257.375
 21
92.6511
 31
0.0
  0
LINE
  8
0
 62
     0
 10
257.375
 20
92.6511
 30
0.0
 11
258.199
 21
92.6511
 31
0.0
  0
LINE
  8
0
 62
     0
 10
258.199
 20
92.6511
 30
0.0
 11
258.199
 21
86.3808
 31
0.0
  0
LINE
  8
0
 62
     0
 10
258.199
 20
86.3808
 30
0.0
 11
259.924
 21
86.3808
 31
0.0
  0
LINE
  8
0
 62
     0
 10
259.924
 20
86.3808
 30
0.0
 11
259.924
 21
85.1821
 31
0.0
  0
LINE
  8
0
 62
     0
 10
259.924
 20
85.1821
 30
0.0
 11
263.224
 21
85.1821
 31
0.0
  0
LINE
  8
0
 62
     0
 10
263.224
 20
85.1821
 30
0.0
 11
263.224
 21
86.3808
 31
0.0
  0
LINE
  8
0
 62
     0
 10
263.224
 20
86.3808
 30
0.0
 11
264.95
 21
86.3808
 31
0.0
  0
LINE
  8
0
 62
     0
 10
264.95
 20
86.3808
 30
0.0
 11
264.95
 21
90.8512
 31
0.0
  0
LINE
  8
0
 62
     0
 10
264.95
 20
90.8512
 30
0.0
 11
266.474
 21
90.8512
 31
0.0
  0
LINE
  8
0
 62
     0
 10
266.474
 20
90.8512
 30
0.0
 11
266.474
 21
86.1522
 31
0.0
  0
LINE
  8
0
 62
     0
 10
266.474
 20
86.1522
 30
0.0
 11
280.475
 21
86.1522
 31
0.0
  0
LINE
  8
0
 62
     0
 10
280.475
 20
86.1522
 30
0.0
 11
280.475
 21
90.8512
 31
0.0
  0
LINE
  8
0
 62
     0
 10
280.475
 20
90.8512
 30
0.0
 11
281.999
 21
90.8512
 31
0.0
  0
LINE
  8
0
 62
     0
 10
281.999
 20
90.8512
 30
0.0
 11
281.999
 21
86.3808
 31
0.0
  0
LINE
  8
0
 62
     0
 10
281.999
 20
86.3808
 30
0.0
 11
283.724
 21
86.3808
 31
0.0
  0
LINE
  8
0
 62
     0
 10
283.724
 20
86.3808
 30
0.0
 11
283.724
 21
85.1821
 31
0.0
  0
LINE
  8
0
 62
     0
 10
283.724
 20
85.1821
 30
0.0
 11
287.025
 21
85.1821
 31
0.0
  0
LINE
  8
0
 62
     0
 10
287.025
 20
85.1821
 30
0.0
 11
287.025
 21
86.3808
 31
0.0
  0
LINE
  8
0
 62
     0
 10
287.025
 20
86.3808
 30
0.0
 11
288.75
 21
86.3808
 31
0.0
  0
LINE
  8
0
 62
     0
 10
288.75
 20
86.3808
 30
0.0
 11
288.75
 21
92.6511
 31
0.0
  0
LINE
  8
0
 62
     0
 10
288.75
 20
92.6511
 30
0.0
 11
289.574
 21
92.6511
 31
0.0
  0
LINE
  8
0
 62
     0
 10
289.574
 20
92.6511
 30
0.0
 11
289.574
 21
95.4511
 31
0.0
  0
LINE
  8
0
 62
     0
 10
289.574
 20
95.4511
 30
0.0
 11
288.75
 21
95.4511
 31
0.0
  0
LINE
  8
0
 62
     0
 10
288.75
 20
95.4511
 30
0.0
 11
288.75
 21
98.6815
 31
0.0
  0
LINE
  8
0
 62
     0
 10
288.75
 20
98.6815
 30
0.0
 11
281.999
 21
98.6815
 31
0.0
  0
LINE
  8
0
 62
     0
 10
281.999
 20
98.6815
 30
0.0
 11
281.999
 21
95.4511
 31
0.0
  0
LINE
  8
0
 62
     0
 10
281.999
 20
95.4511
 30
0.0
 11
280.475
 21
95.4511
 31
0.0
  0
LINE
  8
0
 62
     0
 10
280.475
 20
95.4511
 30
0.0
 11
280.475
 21
100.152
 31
0.0
  0
LINE
  8
0
 62
     0
 10
280.475
 20
100.152
 30
0.0
 11
266.474
 21
100.152
 31
0.0
  0
LINE
  8
0
 62
     0
 10
9.29901
 20
100.152
 30
0.0
 11
23.2999
 21
100.152
 31
0.0
  0
LINE
  8
0
 62
     0
 10
23.2999
 20
100.152
 30
0.0
 11
23.2999
 21
86.1522
 31
0.0
  0
LINE
  8
0
 62
     0
 10
23.2999
 20
86.1522
 30
0.0
 11
9.29901
 21
86.1522
 31
0.0
  0
LINE
  8
0
 62
     0
 10
9.29901
 20
86.1522
 30
0.0
 11
9.29901
 21
100.152
 31
0.0
  0
LINE
  8
0
 62
     0
 10
28.349
 20
100.152
 30
0.0
 11
42.3485
 21
100.152
 31
0.0
  0
LINE
  8
0
 62
     0
 10
42.3485
 20
100.152
 30
0.0
 11
42.3485
 21
86.1522
 31
0.0
  0
LINE
  8
0
 62
     0
 10
42.3485
 20
86.1522
 30
0.0
 11
28.349
 21
86.1522
 31
0.0
  0
LINE
  8
0
 62
     0
 10
28.349
 20
86.1522
 30
0.0
 11
28.349
 21
100.152
 31
0.0
  0
LINE
  8
0
 62
     0
 10
47.3989
 20
100.152
 30
0.0
 11
61.3985
 21
100.152
 31
0.0
  0
LINE
  8
0
 62
     0
 10
61.3985
 20
100.152
 30
0.0
 11
61.3985
 21
86.1522
 31
0.0
  0
LINE
  8
0
 62
     0
 10
61.3985
 20
86.1522
 30
0.0
 11
47.3989
 21
86.1522
 31
0.0
  0
LINE
  8
0
 62
     0
 10
47.3989
 20
86.1522
 30
0.0
 11
47.3989
 21
100.152
 31
0.0
  0
LINE
  8
0
 62
     0
 10
66.4489
 20
100.152
 30
0.0
 11
80.4485
 21
100.152
 31
0.0
  0
LINE
  8
0
 62
     0
 10
80.4485
 20
100.152
 30
0.0
 11
80.4485
 21
86.1522
 31
0.0
  0
LINE
  8
0
 62
     0
 10
80.4485
 20
86.1522
 30
0.0
 11
66.4489
 21
86.1522
 31
0.0
  0
LINE
  8
0
 62
     0
 10
66.4489
 20
86.1522
 30
0.0
 11
66.4489
 21
100.152
 31
0.0
  0
LINE
  8
0
 62
     0
 10
85.4989
 20
100.152
 30
0.0
 11
99.4985
 21
100.152
 31
0.0
  0
LINE
  8
0
 62
     0
 10
99.4985
 20
100.152
 30
0.0
 11
99.4985
 21
86.1522
 31
0.0
  0
LINE
  8
0
 62
     0
 10
99.4985
 20
86.1522
 30
0.0
 11
85.4989
 21
86.1522
 31
0.0
  0
LINE
  8
0
 62
     0
 10
85.4989
 20
86.1522
 30
0.0
 11
85.4989
 21
100.152
 31
0.0
  0
LINE
  8
0
 62
     0
 10
104.549
 20
100.152
 30
0.0
 11
118.549
 21
100.152
 31
0.0
  0
LINE
  8
0
 62
     0
 10
118.549
 20
100.152
 30
0.0
 11
118.549
 21
86.1522
 31
0.0
  0
LINE
  8
0
 62
     0
 10
118.549
 20
86.1522
 30
0.0
 11
104.549
 21
86.1522
 31
0.0
  0
LINE
  8
0
 62
     0
 10
104.549
 20
86.1522
 30
0.0
 11
104.549
 21
100.152
 31
0.0
  0
LINE
  8
0
 62
     0
 10
123.599
 20
100.152
 30
0.0
 11
137.6
 21
100.152
 31
0.0
  0
LINE
  8
0
 62
     0
 10
137.6
 20
100.152
 30
0.0
 11
137.6
 21
86.1522
 31
0.0
  0
LINE
  8
0
 62
     0
 10
137.6
 20
86.1522
 30
0.0
 11
123.599
 21
86.1522
 31
0.0
  0
LINE
  8
0
 62
     0
 10
123.599
 20
86.1522
 30
0.0
 11
123.599
 21
100.152
 31
0.0
  0
LINE
  8
0
 62
     0
 10
142.649
 20
100.152
 30
0.0
 11
156.65
 21
100.152
 31
0.0
  0
LINE
  8
0
 62
     0
 10
156.65
 20
100.152
 30
0.0
 11
156.65
 21
86.1522
 31
0.0
  0
LINE
  8
0
 62
     0
 10
156.65
 20
86.1522
 30
0.0
 11
142.649
 21
86.1522
 31
0.0
  0
LINE
  8
0
 62
     0
 10
142.649
 20
86.1522
 30
0.0
 11
142.649
 21
100.152
 31
0.0
  0
LINE
  8
0
 62
     0
 10
161.699
 20
100.152
 30
0.0
 11
175.7
 21
100.152
 31
0.0
  0
LINE
  8
0
 62
     0
 10
175.7
 20
100.152
 30
0.0
 11
175.7
 21
86.1522
 31
0.0
  0
LINE
  8
0
 62
     0
 10
175.7
 20
86.1522
 30
0.0
 11
161.699
 21
86.1522
 31
0.0
  0
LINE
  8
0
 62
     0
 10
161.699
 20
86.1522
 30
0.0
 11
161.699
 21
100.152
 31
0.0
  0
LINE
  8
0
 62
     0
 10
180.749
 20
100.152
 30
0.0
 11
194.75
 21
100.152
 31
0.0
  0
LINE
  8
0
 62
     0
 10
194.75
 20
100.152
 30
0.0
 11
194.75
 21
86.1522
 31
0.0
  0
LINE
  8
0
 62
     0
 10
194.75
 20
86.1522
 30
0.0
 11
180.749
 21
86.1522
 31
0.0
  0
LINE
  8
0
 62
     0
 10
180.749
 20
86.1522
 30
0.0
 11
180.749
 21
100.152
 31
0.0
  0
LINE
  8
0
 62
     0
 10
199.799
 20
100.152
 30
0.0
 11
213.8
 21
100.152
 31
0.0
  0
LINE
  8
0
 62
     0
 10
213.8
 20
100.152
 30
0.0
 11
213.8
 21
86.1522
 31
0.0
  0
LINE
  8
0
 62
     0
 10
213.8
 20
86.1522
 30
0.0
 11
199.799
 21
86.1522
 31
0.0
  0
LINE
  8
0
 62
     0
 10
199.799
 20
86.1522
 30
0.0
 11
199.799
 21
100.152
 31
0.0
  0
LINE
  8
0
 62
     0
 10
218.849
 20
100.152
 30
0.0
 11
232.85
 21
100.152
 31
0.0
  0
LINE
  8
0
 62
     0
 10
232.85
 20
100.152
 30
0.0
 11
232.85
 21
86.1522
 31
0.0
  0
LINE
  8
0
 62
     0
 10
232.85
 20
86.1522
 30
0.0
 11
218.849
 21
86.1522
 31
0.0
  0
LINE
  8
0
 62
     0
 10
218.849
 20
86.1522
 30
0.0
 11
218.849
 21
100.152
 31
0.0
  0
LINE
  8
0
 62
     0
 10
237.899
 20
100.152
 30
0.0
 11
251.9
 21
100.152
 31
0.0
  0
LINE
  8
0
 62
     0
 10
251.9
 20
100.152
 30
0.0
 11
251.9
 21
86.1522
 31
0.0
  0
LINE
  8
0
 62
     0
 10
251.9
 20
86.1522
 30
0.0
 11
237.899
 21
86.1522
 31
0.0
  0
LINE
  8
0
 62
     0
 10
237.899
 20
86.1522
 30
0.0
 11
237.899
 21
100.152
 31
0.0
  0
LINE
  8
0
 62
     0
 10
295.049
 20
100.152
 30
0.0
 11
309.05
 21
100.152
 31
0.0
  0
LINE
  8
0
 62
     0
 10
309.05
 20
100.152
 30
0.0
 11
309.05
 21
86.1522
 31
0.0
  0
LINE
  8
0
 62
     0
 10
309.05
 20
86.1522
 30
0.0
 11
295.049
 21
86.1522
 31
0.0
  0
LINE
  8
0
 62
     0
 10
295.049
 20
86.1522
 30
0.0
 11
295.049
 21
100.152
 31
0.0
  0
ENDSEC
  0
EOF
